<svg width="305" height="350" viewBox="0 0 305 350" fill="none" xmlns="http://www.w3.org/2000/svg">
<path d="M2.91748 4.87122L0.958891 0.489048C17.1391 3.70864 31.356 9.8491 43.3049 18.8977C60.157 31.6509 68.4946 47.1029 72.5339 57.8135C74.3265 62.5891 75.66 67.4848 76.4432 72.2007C82.1253 71.96 88.495 72.9232 95.2574 75.0519C107.759 78.9791 116.591 88.8459 123.103 106.093C128.858 121.358 132.189 140.474 136.056 162.607C139.637 183.143 143.698 206.424 150.477 229.192C158.193 255.203 168.31 276.692 181.368 294.866C192.159 309.882 205.084 321.687 219.764 329.962C232.546 337.148 247.071 341.874 262.985 344.02C276.974 345.92 291.032 345.874 304.742 344.429L294.361 349.069C283.862 349.717 273.13 349.32 262.438 347.862C246.039 345.634 231.033 340.74 217.825 333.319C202.642 324.779 189.315 312.6 178.187 297.118C164.883 278.586 154.582 256.732 146.737 230.289C139.906 207.31 135.816 183.914 132.231 163.273C128.407 141.334 125.086 122.384 119.464 107.464C113.422 91.4117 105.351 82.2905 94.0884 78.7459C87.0766 76.5372 81.4156 75.917 76.9943 76.0626C77.2195 78.2395 77.3338 80.3595 77.3214 82.3872C77.2535 89.7398 75.514 95.4555 72.4306 98.4514C69.9583 100.855 66.7129 101.433 63.3116 100.037C59.7639 98.5997 57.1537 96.2968 55.7582 93.3658C54.4183 90.559 54.3011 87.3333 55.4152 84.2811C57.2246 79.343 61.9203 75.4137 68.3315 73.5061C69.685 73.0927 71.0939 72.8036 72.5702 72.5694C71.8071 68.1851 70.5708 63.6504 68.8951 59.1844C65.0264 48.951 57.0772 34.1769 40.9678 21.9857C30.1397 13.8197 17.3956 8.10655 2.91748 4.87122ZM69.4287 77.2515C64.2285 78.8095 60.4445 81.863 59.0717 85.6268C57.4382 90.1458 59.6817 94.4006 64.7974 96.4777C66.7514 97.2646 68.3682 97.0103 69.7092 95.7085C71.9995 93.4716 73.3596 88.6279 73.4205 82.4066C73.4448 80.5012 73.3424 78.5036 73.1035 76.4393C71.6984 76.6415 70.4814 76.93 69.4287 77.2515Z" fill="#DAE2E8"/>
</svg>
