<svg width="352" height="306" viewBox="0 0 352 306" fill="none" xmlns="http://www.w3.org/2000/svg">
<path d="M348.849 301.656L351.427 305.705C334.95 304.887 319.988 300.893 306.844 293.69C288.307 283.539 277.799 269.473 272.236 259.469C269.764 255.007 267.728 250.359 266.264 245.808C260.678 246.878 254.236 246.857 247.235 245.74C234.293 243.684 224.113 235.216 215.147 219.107C207.221 204.848 201.13 186.425 194.066 165.096C187.518 145.305 180.096 122.868 170.058 101.337C158.62 76.7348 145.468 56.9569 129.892 40.8888C117.02 27.6142 102.507 17.8268 86.7746 11.7883C73.0781 6.5499 58.0183 3.99993 41.9613 4.20482C27.8455 4.37135 13.9455 6.47409 0.59373 9.90957L10.1846 3.80074C20.4759 1.62343 31.15 0.446464 41.9408 0.324109C58.4894 0.128678 74.0497 2.77459 88.2018 8.18365C104.47 14.4105 119.435 24.5088 132.709 38.1959C148.581 54.5827 161.969 74.6942 173.598 99.7047C183.717 121.437 191.186 143.983 197.752 163.877C204.745 185.021 210.802 203.281 218.546 217.219C226.872 232.214 236.191 240.056 247.851 241.915C255.11 243.074 260.801 242.859 265.154 242.069C264.612 239.948 264.189 237.868 263.905 235.86C262.896 228.576 263.781 222.668 266.393 219.253C268.487 216.514 271.613 215.467 275.182 216.351C278.901 217.253 281.82 219.149 283.63 221.845C285.366 224.425 285.954 227.599 285.298 230.781C284.231 235.931 280.16 240.505 274.097 243.33C272.819 243.937 271.467 244.429 270.041 244.877C271.437 249.102 273.324 253.407 275.635 257.58C280.959 267.138 290.984 280.59 308.704 290.293C320.61 296.787 334.053 300.574 348.849 301.656ZM272.464 239.786C277.38 237.484 280.677 233.909 281.484 229.985C282.439 225.276 279.597 221.395 274.232 220.089C272.184 219.596 270.622 220.084 269.486 221.568C267.548 224.116 266.911 229.107 267.761 235.27C268.015 237.158 268.409 239.12 268.947 241.127C270.308 240.721 271.469 240.258 272.464 239.786Z" fill="#DAE2E8"/>
</svg>
