<svg width="96" height="66" viewBox="0 0 96 66" fill="none" xmlns="http://www.w3.org/2000/svg">
<path d="M86.7626 44.6546C89.9973 41.9188 92.4849 39.4276 92.6651 38.4279C92.8452 37.4283 90.7238 37.9292 84.6986 41.0799C81.0908 42.8516 76.8229 45.1434 73.4495 46.9518L68.991 49.3579C69.8911 48.5528 70.7923 47.7463 71.6944 46.9387C74.3307 44.5738 76.9672 42.189 79.575 39.7412C82.1827 37.2934 84.7655 34.788 87.2724 32.1144C88.5237 30.7728 89.7598 29.3932 90.9486 27.9008C91.544 27.1551 92.1302 26.3802 92.6976 25.5506L92.9239 25.2152L93.2715 24.6764C93.4966 24.308 93.7357 23.9309 93.9359 23.5486C94.35 22.8103 94.7012 22.0385 94.9859 21.2413C95.2427 20.5152 95.4088 19.7602 95.4806 18.9934C95.5413 18.3067 95.5006 17.6148 95.3597 16.9399C95.2168 16.2784 94.9605 15.6467 94.602 15.0726C94.5098 14.9295 94.4144 14.7824 94.3171 14.6394L94.151 14.4389L94.1105 14.388C94.0877 14.3777 94.0793 14.3576 94.062 14.3435L93.9807 14.2478C93.7469 13.991 93.4858 13.7603 93.2021 13.56C92.0832 12.7988 90.7347 12.45 89.3871 12.5732C87.7467 12.7397 86.147 13.1866 84.6579 13.8944C84.4564 13.9776 84.2578 14.0709 84.0593 14.1641L83.7611 14.3032L83.5191 14.4179L82.8698 14.7469C82.4369 14.9662 82.0144 15.1903 81.6022 15.419C80.7717 15.8716 79.9687 16.338 79.1787 16.8141C77.5998 17.7642 76.0744 18.7475 74.5736 19.7481C71.5722 21.7545 68.6686 23.8204 65.7908 25.9093C60.9283 29.4418 56.1549 33.0448 51.3806 36.57C52.9724 34.8864 54.5696 33.1964 56.1595 31.4757C57.1735 30.3784 58.183 29.2653 59.188 28.1364L60.3253 26.8367C60.8066 26.2805 61.2797 25.7211 61.7448 25.1583C62.6744 24.0351 63.5538 22.9041 64.331 21.8002C65.0377 20.8164 65.6563 19.7721 66.1795 18.6796C66.3807 18.2439 66.5505 17.7945 66.6879 17.3347C66.7977 16.9531 66.8762 16.5631 66.9225 16.1688C67.0009 15.5143 66.9591 14.851 66.799 14.2116C66.7144 13.8838 66.5959 13.5657 66.4453 13.2625C66.2477 12.8702 65.9968 12.5072 65.6997 12.1838C65.3883 11.8536 65.0383 11.5622 64.6571 11.3159C64.3362 11.1119 63.9945 10.9426 63.6379 10.8108C62.9817 10.5645 62.2866 10.4381 61.5857 10.4377C61.1951 10.4399 60.8051 10.4712 60.4191 10.5313C59.9749 10.6072 59.5362 10.7122 59.1058 10.8454C58.0301 11.2015 56.9948 11.6698 56.017 12.2425C54.1181 13.3634 52.3037 14.6215 50.5881 16.0068L49.9099 16.5475L49.2794 17.0574L48.5811 17.634L47.2108 18.7926C45.4014 20.3423 43.6467 21.9256 41.9161 23.5136C40.1855 25.1016 38.4826 26.6973 36.786 28.2983L33.8548 31.056C33.8442 31.0674 33.8318 31.0769 33.8182 31.0843C33.8127 31.0718 33.8309 31.0564 33.8366 31.044L34.8368 29.5844C36.0264 27.8514 37.2223 26.11 38.4117 24.3419C39.0058 23.459 39.5969 22.5681 40.185 21.6692L40.846 20.6448C41.0917 20.267 41.377 19.8073 41.6544 19.3653C42.2076 18.4792 42.7453 17.5885 43.239 16.7066C43.7328 15.8247 44.196 14.9551 44.5861 14.1172C44.6952 13.9021 44.7744 13.7033 44.8546 13.5025L45.1036 12.8976C45.1763 12.7022 45.2307 12.5196 45.296 12.3295L45.3894 12.0473L45.4362 11.9062L45.4665 11.7763C45.5565 11.4472 45.6253 11.1126 45.6725 10.7747C45.6898 10.6215 45.7219 10.455 45.7264 10.3134L45.7398 9.88858C45.7397 9.3921 45.6703 8.89806 45.5335 8.42079L45.423 8.09822L45.2864 7.78627C45.1839 7.56117 45.0514 7.35092 44.8927 7.16119C44.7215 6.95837 44.5329 6.68648 44.2929 6.4236C44.0628 6.21916 43.8161 6.0342 43.5553 5.87062C43.1486 5.63061 42.7067 5.45605 42.2457 5.35332C41.7588 5.24769 41.2594 5.21217 40.7625 5.24785C40.118 5.30281 39.4835 5.44146 38.8749 5.66031C38.0847 5.94384 37.3196 6.29295 36.5876 6.70398C34.8438 7.69374 33.1602 8.78598 31.5456 9.97497L30.285 10.9063L29.4103 11.5574L28.1293 12.5307C27.2802 13.1818 26.4391 13.8361 25.6061 14.4937C23.9372 15.8088 22.2901 17.1338 20.652 18.4579C19.6758 19.251 18.7001 20.0409 17.725 20.8279C19.1407 19.0691 20.5713 17.317 22.0167 15.5718C24.6443 12.3961 27.3007 9.23677 29.9858 6.0939C30.0705 5.8896 30.1218 5.67301 30.1378 5.45241C30.2643 0.371592 26.6863 0.411946 24.8073 0.989433C24.7178 0.99666 24.631 1.02295 24.5525 1.06654C24.4741 1.11012 24.4059 1.16999 24.3525 1.24212C21.6556 4.4129 18.9764 7.60303 16.3151 10.8125C13.6216 14.0719 10.9508 17.3553 8.33043 20.7254C7.02473 22.4144 5.73108 24.1126 4.46081 25.8938C3.82629 26.7804 3.1991 27.6865 2.58403 28.6456C2.27484 29.1219 1.96734 29.621 1.66153 30.143C1.32012 30.7219 1.01012 31.3188 0.732872 31.9311C0.651681 32.1315 0.576149 32.3057 0.495324 32.5299C0.399601 32.7917 0.319679 33.0589 0.255992 33.3303C0.210131 33.513 0.175798 33.6985 0.153192 33.8855C0.138525 34.0037 0.125928 34.1229 0.115399 34.243L0.104595 34.4204C0.102487 34.5019 0.104513 34.599 0.108236 34.6869C0.114365 34.8683 0.130183 35.0503 0.154001 35.2285L0.174168 35.3626L0.216981 35.5595C0.246461 35.6978 0.286766 35.826 0.330738 35.9572C0.374709 36.0884 0.423199 36.2179 0.477617 36.3425C0.5076 36.4111 0.526019 36.4557 0.56926 36.5391C0.612502 36.6225 0.654899 36.6968 0.702472 36.7734C0.888897 37.0831 1.11312 37.3685 1.36999 37.6229C1.63099 37.8737 1.92422 38.0887 2.24195 38.2621C2.38947 38.3392 2.54111 38.4082 2.69618 38.4688C2.83296 38.5223 2.956 38.562 3.08967 38.6004L3.28845 38.6521C3.35722 38.6684 3.42184 38.6829 3.46945 38.6908C3.57444 38.7098 3.68027 38.7243 3.78705 38.7367C3.96754 38.7574 4.1492 38.7662 4.33084 38.7631C4.77874 38.7559 5.22384 38.6911 5.65515 38.5701C6.11753 38.4392 6.56749 38.2678 6.99983 38.058C7.59953 37.7661 8.18242 37.4409 8.7458 37.084C9.2586 36.764 9.73782 36.4438 10.2033 36.1236C12.054 34.8425 13.7455 33.5327 15.4295 32.2145C18.7793 29.5798 22.0251 26.9102 25.2783 24.279C26.9033 22.9643 28.5284 21.6639 30.1538 20.3777C30.9674 19.7371 31.7821 19.1033 32.5979 18.4762L34.2087 17.2558L32.2697 20.1853C31.1117 21.9065 29.9249 23.6334 28.7348 25.3674L26.1674 29.1263C24.9931 30.8613 23.8259 32.6083 22.7472 34.3144C21.6405 36.014 20.6385 37.7795 19.7468 39.6011L19.4887 40.1681L19.3602 40.4506L19.2653 40.7085L19.074 41.2222C19.0432 41.3007 19.0174 41.3812 18.9968 41.4631L18.9334 41.6902C18.8931 41.8393 18.844 41.9993 18.811 42.1404L18.7342 42.5426L18.6962 42.7439L18.6779 42.9241L18.6401 43.2816C18.5939 44.0159 18.7104 44.7513 18.9814 45.4354C19.047 45.5903 19.1219 45.7411 19.2055 45.8871C19.3045 46.0345 19.4137 46.1679 19.5519 46.3445C19.6901 46.521 19.8451 46.7377 20.0847 47.0016C20.3174 47.1922 20.5608 47.3692 20.8138 47.532C21.1332 47.7175 21.4757 47.86 21.8325 47.9556C22.1504 48.0426 22.477 48.0936 22.8062 48.1077C23.7127 48.133 24.6124 47.9432 25.4314 47.5538C26.0959 47.2525 26.7338 46.8956 27.3383 46.4869C28.0488 46.0234 28.8097 45.4492 29.6077 44.8156C31.2044 43.5438 32.9107 42.0285 34.6044 40.4886L37.1515 38.1356L39.3029 36.1171L41.8401 33.7283C43.5274 32.1393 45.2111 30.5612 46.9013 29.0072C48.5914 27.4532 50.2887 25.9275 52.0023 24.4592L53.2903 23.3691L53.9821 22.7984L53.6622 23.1612C52.707 24.239 51.7303 25.3121 50.7398 26.3826C48.765 28.5264 46.7352 30.6565 44.7047 32.8075C42.6741 34.9584 40.6315 37.1251 38.6128 39.3926C37.6035 40.532 36.6009 41.6894 35.6053 42.955C35.1066 43.5924 34.6108 44.251 34.1079 45.0213C33.8306 45.4435 33.5753 45.8797 33.3432 46.3283C33.1964 46.6165 33.0648 46.9122 32.9488 47.2142C32.7757 47.6645 32.6561 48.1337 32.5924 48.612C32.5818 48.6821 32.5729 48.773 32.5666 48.8663L32.5528 49.141C32.5495 49.2332 32.5525 49.3557 32.5579 49.4618C32.5633 49.568 32.568 49.6675 32.5852 49.8052C32.658 50.4096 32.8538 50.9927 33.1607 51.5185C33.338 51.8207 33.552 52.0998 33.798 52.3493C33.9211 52.474 34.051 52.5919 34.1869 52.7024C34.3164 52.8042 34.4514 52.8986 34.5915 52.9852C34.7253 53.0698 34.864 53.1463 35.0069 53.2142C35.1342 53.2721 35.2635 53.331 35.3964 53.3765L35.5946 53.4405L35.7642 53.4877C35.8752 53.5165 35.9882 53.5426 36.1034 53.5658C36.6997 53.6733 37.3101 53.6773 37.9078 53.5776L38.2136 53.5232L38.48 53.4621C38.6636 53.4208 38.8024 53.3765 38.9595 53.3306C39.4626 53.1724 39.955 52.9823 40.4338 52.7613C40.8607 52.5671 41.2503 52.3697 41.6281 52.1707C43.1159 51.3715 44.4216 50.5443 45.7094 49.7015C48.2667 48.0151 50.6902 46.274 53.0976 44.5219C58.616 40.4922 64.0027 36.3952 69.4405 32.43C72.1579 30.4493 74.8831 28.4983 77.6288 26.6366C79.0014 25.7062 80.38 24.7986 81.7627 23.9365C83.1455 23.0745 84.5308 22.2536 85.8947 21.5454L86.7514 21.1147L86.4163 21.6041C85.5078 22.8708 84.532 24.0878 83.4932 25.2499C81.3623 27.6624 79.018 30.0116 76.6198 32.32C74.2217 34.6284 71.7438 36.9005 69.2447 39.1617L61.6832 45.9436C59.148 48.2209 56.61 50.5043 54.0911 52.9464C53.4608 53.5601 52.8316 54.188 52.2015 54.848C51.5714 55.508 50.9418 56.1944 50.2912 57.0037C49.921 57.4595 49.5806 57.9387 49.2723 58.4385C49.0494 58.7988 48.8579 59.1775 48.6997 59.5705C48.6488 59.6823 48.5955 59.8516 48.5507 59.9911C48.5287 60.056 48.5013 60.1547 48.4782 60.2466L48.413 60.5242C48.3931 60.6201 48.3716 60.7552 48.3556 60.8728L48.3352 61.0521C48.3296 61.1082 48.3243 61.172 48.3207 61.2541C48.3151 61.4064 48.3151 61.56 48.3222 61.7119C48.3242 61.7815 48.331 61.8682 48.3418 61.9706C48.3527 62.073 48.3665 62.1579 48.3826 62.2515C48.4561 62.67 48.5911 63.0753 48.7833 63.4542C48.8921 63.6615 49.0162 63.8603 49.1545 64.0491C49.2915 64.2318 49.4434 64.4029 49.6087 64.5605C49.6904 64.639 49.7756 64.7152 49.8623 64.7883C49.9489 64.8615 50.0224 64.9112 50.1055 64.9702C50.2689 65.0831 50.439 65.1859 50.6148 65.2782C50.7593 65.3505 50.9075 65.415 51.0589 65.4715L51.2815 65.5504C51.3619 65.577 51.4261 65.595 51.4811 65.6087C51.5978 65.6377 51.7158 65.6639 51.835 65.6873L52.0132 65.7185L52.1573 65.7366L52.4349 65.7605C52.5282 65.7668 52.6261 65.7713 52.6917 65.77C52.8377 65.7702 52.9897 65.7682 53.1293 65.7606L53.4893 65.727C53.8651 65.6812 54.2372 65.6098 54.6033 65.5133C54.7656 65.4723 54.9121 65.4303 55.0529 65.387C55.1938 65.3437 55.3311 65.3 55.4648 65.2559C56.4028 64.9287 57.321 64.5476 58.215 64.1144C59.052 63.716 59.852 63.3057 60.6365 62.8883C62.2013 62.0516 63.7096 61.1855 65.1989 60.3033L66.782 59.3551L68.0808 58.5623L70.6579 56.9586L73.3333 55.0236C74.9263 53.8588 77.0258 52.3001 79.0849 50.7367C83.2034 47.6149 87.1628 44.4833 86.7558 44.664" fill="white" fill-opacity="0.31"/>
</svg>
