<svg width="66" height="78" viewBox="0 0 66 78" fill="none" xmlns="http://www.w3.org/2000/svg">
<path d="M60.3212 75.3651C60.3385 74.8692 60.5025 74.3895 60.7924 73.9868C61.0823 73.5841 61.4851 73.2764 61.9499 73.1026C62.4147 72.9288 62.9206 72.8968 63.4036 73.0105C63.8867 73.1242 64.3251 73.3787 64.6635 73.7416C65.0019 74.1045 65.2252 74.5596 65.3049 75.0494C65.3847 75.5391 65.3174 76.0416 65.1116 76.4931C64.9059 76.9447 64.5708 77.325 64.1488 77.5862C63.7269 77.8473 63.237 77.9774 62.741 77.9601C62.076 77.9369 61.4475 77.6504 60.9937 77.1638C60.5399 76.6771 60.298 76.0301 60.3212 75.3651ZM59.0224 58.9397C59.0427 58.3586 59.2349 57.7966 59.5746 57.3247C59.9143 56.8528 60.3863 56.4923 60.9309 56.2886C61.4755 56.085 62.0683 56.0475 62.6342 56.1807C63.2002 56.314 63.7139 56.6121 64.1105 57.0373C64.507 57.4626 64.7685 57.9958 64.862 58.5697C64.9555 59.1436 64.8767 59.7323 64.6355 60.2614C64.3944 60.7905 64.0018 61.2362 63.5074 61.5421C63.013 61.8481 62.4389 62.0006 61.8578 61.9803C61.0794 61.9531 60.3436 61.6181 59.812 61.0489C59.2803 60.4796 58.9963 59.7227 59.0223 58.9442L59.0224 58.9397ZM56.5543 20.4285C56.6758 19.6997 57.0048 19.0213 57.5019 18.4746C57.9989 17.9279 58.6431 17.536 59.3571 17.346C60.0712 17.156 60.8249 17.1758 61.528 17.4031C62.231 17.6304 62.8537 18.0555 63.3214 18.6276C63.789 19.1996 64.0819 19.8944 64.1649 20.6286C64.2479 21.3629 64.1175 22.1054 63.7893 22.7675C63.4611 23.4295 62.949 23.9829 62.3144 24.3613C61.6798 24.7398 60.9495 24.9274 60.2111 24.9015C59.1359 24.7886 58.1488 24.2558 57.4643 23.4191C56.7797 22.5824 56.4531 21.5093 56.5553 20.4331L56.5543 20.4285ZM54.1031 4.53159C54.1333 3.67328 54.4173 2.84319 54.9192 2.1463C55.4212 1.4494 56.1185 0.916977 56.923 0.616364C57.7275 0.315752 58.6031 0.260437 59.439 0.457418C60.275 0.654398 61.0337 1.09484 61.6194 1.72303C62.205 2.35123 62.5913 3.13897 62.7292 3.98666C62.8672 4.83434 62.7507 5.70391 62.3945 6.48539C62.0383 7.26688 61.4584 7.9252 60.728 8.37712C59.9977 8.82903 59.1498 9.05423 58.2914 9.02426C57.142 8.98412 56.0554 8.48962 55.2701 7.64927C54.4848 6.80892 54.065 5.69136 54.1027 4.54181L54.1031 4.53159ZM55.5147 40.2986C55.535 39.7175 55.7271 39.1555 56.0668 38.6836C56.4065 38.2117 56.8785 37.8512 57.4231 37.6475C57.9678 37.4439 58.5605 37.4064 59.1265 37.5396C59.6924 37.6729 60.2062 37.971 60.6027 38.3962C60.9992 38.8215 61.2608 39.3547 61.3543 39.9286C61.4477 40.5025 61.3689 41.0912 61.1278 41.6203C60.8867 42.1494 60.4941 42.5951 59.9996 42.901C59.5052 43.207 58.9312 43.3595 58.3501 43.3392C57.5732 43.3121 56.8387 42.9784 56.3073 42.4111C55.7758 41.8438 55.4907 41.0892 55.5142 40.3122L55.5147 40.2986ZM50.115 66.8767C50.2296 66.1262 50.6158 65.4439 51.2002 64.9593C51.7847 64.4748 52.5267 64.2218 53.2855 64.2483C54.0442 64.2748 54.7668 64.5789 55.316 65.1031C55.8652 65.6272 56.2029 66.3348 56.2648 67.0914C56.1503 67.8419 55.7641 68.5242 55.1796 69.0088C54.5952 69.4933 53.8531 69.7463 53.0944 69.7198C52.3357 69.6933 51.6131 69.3892 51.0638 68.865C50.5146 68.3409 50.1769 67.6333 50.115 66.8767ZM48.5407 49.4178C48.5274 48.717 48.7246 48.0283 49.1069 47.4407C49.4891 46.8531 50.0389 46.3937 50.685 46.1219C51.3311 45.85 52.0439 45.7783 52.7312 45.9158C53.4186 46.0534 54.0489 46.3939 54.5406 46.8935C55.0324 47.3931 55.3629 48.0286 55.4896 48.7181C55.6163 49.4075 55.5333 50.1191 55.2513 50.7608C54.9693 51.4026 54.5013 51.945 53.9078 52.318C53.3143 52.6909 52.6225 52.8773 51.922 52.8529C51.0186 52.8452 50.1552 52.4794 49.5213 51.8359C48.8873 51.1923 48.5346 50.3235 48.5406 49.4201L48.5407 49.4178ZM44.3124 32.1576C44.3373 31.4913 44.559 30.8473 44.9497 30.3069C45.3404 29.7666 45.8824 29.3542 46.5074 29.1218C47.1323 28.8894 47.8121 28.8474 48.4609 29.0012C49.1097 29.155 49.6984 29.4976 50.1525 29.9858C50.6067 30.474 50.906 31.0858 51.0126 31.744C51.1191 32.4022 51.0283 33.0772 50.7514 33.6838C50.4746 34.2903 50.0241 34.8012 49.457 35.1519C48.89 35.5026 48.2317 35.6774 47.5653 35.6541C47.1222 35.6386 46.6864 35.5359 46.283 35.3519C45.8796 35.1678 45.5164 34.906 45.2143 34.5815C44.9121 34.2569 44.677 33.876 44.5222 33.4605C44.3674 33.0449 44.2961 32.6029 44.3123 32.1598L44.3124 32.1576ZM41.6347 12.1895C41.658 11.5228 41.8785 10.878 42.2682 10.3366C42.658 9.79522 43.1995 9.38155 43.8244 9.14792C44.4492 8.9143 45.1293 8.87122 45.7787 9.02411C46.428 9.17701 47.0175 9.51903 47.4724 10.0069C47.9274 10.4948 48.2274 11.1067 48.3347 11.7651C48.4419 12.4235 48.3515 13.0989 48.0748 13.706C47.7982 14.313 47.3478 14.8244 46.7805 15.1754C46.2132 15.5265 45.5546 15.7014 44.8879 15.6781C43.9943 15.6469 43.1496 15.2622 42.5396 14.6084C41.9295 13.9547 41.6041 13.0855 41.6347 12.1918L41.6347 12.1895ZM29.7922 44.3394C29.7871 43.214 30.2288 42.1327 31.0202 41.3326C31.8116 40.5326 32.8882 40.0793 34.0135 40.0721C35.1345 40.1589 36.1754 40.6865 36.9081 41.5394C37.6408 42.3923 38.0055 43.5008 37.9223 44.6221C37.9274 45.7468 37.4864 46.8277 36.696 47.6278C35.9056 48.4279 34.8302 48.8821 33.7055 48.8907C32.5834 48.8051 31.5412 48.2777 30.8075 47.4245C30.0738 46.5712 29.7087 45.4616 29.7922 44.3394ZM28.8811 60.8537C28.9843 59.9552 29.4224 59.1285 30.1079 58.5384C30.7934 57.9483 31.676 57.6382 32.5799 57.6697C33.4839 57.7013 34.3427 58.0723 34.9854 58.7087C35.6281 59.3452 36.0074 60.2004 36.0477 61.104C35.9444 62.0026 35.5064 62.8292 34.8209 63.4193C34.1354 64.0094 33.2528 64.3195 32.3488 64.288C31.4449 64.2564 30.586 63.8854 29.9434 63.249C29.3007 62.6125 28.9214 61.7573 28.8811 60.8537ZM25.7484 23.8152C25.7716 23.1532 25.9905 22.513 26.3775 21.9754C26.7644 21.4378 27.3022 21.0271 27.9226 20.7951C28.543 20.5631 29.2183 20.5204 29.8631 20.6722C30.5078 20.824 31.0931 21.1636 31.5448 21.648C31.9965 22.1325 32.2945 22.74 32.401 23.3937C32.5074 24.0475 32.4176 24.7182 32.143 25.3209C31.8683 25.9236 31.421 26.4314 30.8578 26.7799C30.2945 27.1285 29.6406 27.3022 28.9786 27.2791C28.0911 27.2481 27.2522 26.8659 26.6465 26.2165C26.0408 25.5672 25.7177 24.7038 25.7484 23.8163L25.7484 23.8152ZM16.0766 55.9237C16.1036 55.1568 16.3573 54.4152 16.8058 53.7926C17.2543 53.1699 17.8773 52.6942 18.5961 52.4257C19.3149 52.1571 20.0972 52.1077 20.8441 52.2837C21.5909 52.4597 22.2689 52.8532 22.7921 53.4145C23.3153 53.9758 23.6604 54.6796 23.7837 55.437C23.9069 56.1943 23.8028 56.9712 23.4846 57.6695C23.1663 58.3677 22.6482 58.9558 21.9957 59.3596C21.3431 59.7634 20.5856 59.9646 19.8187 59.9378C19.3094 59.92 18.8086 59.8021 18.3449 59.5907C17.8811 59.3793 17.4636 59.0787 17.1161 58.7059C16.7686 58.3331 16.4979 57.8956 16.3196 57.4182C16.1412 56.9408 16.0586 56.433 16.0766 55.9237ZM16.2085 38.9203C16.2353 38.1534 16.4889 37.4116 16.9372 36.7888C17.3856 36.166 18.0085 35.6902 18.7273 35.4215C19.4461 35.1527 20.2284 35.1032 20.9754 35.279C21.7223 35.4549 22.4003 35.8483 22.9237 36.4096C23.447 36.9708 23.7922 37.6746 23.9156 38.432C24.0389 39.1894 23.9349 39.9664 23.6167 40.6647C23.2985 41.363 22.7803 41.9512 22.1278 42.355C21.4752 42.7588 20.7176 42.9601 19.9507 42.9333C18.9223 42.8974 17.9503 42.4544 17.2485 41.7018C16.5467 40.9492 16.1726 39.9487 16.2085 38.9203ZM0.957774 49.4795C0.977226 48.9225 1.16142 48.3837 1.48707 47.9314C1.81272 47.479 2.26519 47.1334 2.78728 46.9382C3.30936 46.743 3.8776 46.707 4.42014 46.8348C4.96268 46.9625 5.45516 47.2483 5.83529 47.6559C6.21542 48.0636 6.46614 48.5748 6.55573 49.1249C6.64532 49.675 6.56977 50.2394 6.33863 50.7466C6.10749 51.2538 5.73114 51.681 5.25717 51.9743C4.7832 52.2676 4.2329 52.4138 3.67586 52.3943C2.9289 52.3682 2.22289 52.0465 1.71315 51.4999C1.2034 50.9532 0.931689 50.2265 0.957774 49.4795Z" fill="#FF6800"/>
</svg>
