<svg width="36" height="37" viewBox="0 0 36 37" fill="none" xmlns="http://www.w3.org/2000/svg">
<path d="M35.824 16.8722C35.9363 17.8989 35.9606 18.9334 35.8968 19.9643L19.1447 36.7164C18.1138 36.7804 17.0793 36.7557 16.0526 36.6425L35.824 16.8722ZM34.5144 11.8474C34.8393 12.6127 35.1101 13.3998 35.325 14.2029L13.3845 36.1434C12.581 35.9289 11.7936 35.6584 11.0279 35.334L34.5144 11.8474ZM35.242 23.784C34.4033 26.703 32.8366 29.3611 30.6891 31.5087C28.5415 33.6562 25.8834 35.2229 22.9644 36.0616L35.242 23.784ZM32.1726 7.86064C32.6399 8.46042 33.0682 9.08962 33.4549 9.74434L8.92475 34.2734C8.27017 33.8869 7.64099 33.459 7.04105 32.9922L32.1726 7.86064ZM30.6947 6.17929L5.36084 31.5075C2.00211 28.148 0.115495 23.5919 0.116028 18.8414C0.116561 14.0909 2.0042 9.53518 5.36368 6.17645C8.72316 2.81772 13.2793 0.931108 18.0298 0.931641C22.7803 0.932174 27.336 2.81981 30.6947 6.17929Z" fill="#FFCC00"/>
</svg>
