<svg width="38" height="38" viewBox="0 0 38 38" fill="none" xmlns="http://www.w3.org/2000/svg">
<path d="M18.8129 32.9831C18.8129 34.1997 18.3296 35.3664 17.4694 36.2267C16.6092 37.0869 15.4424 37.5702 14.2259 37.5702C13.0093 37.5702 11.8426 37.0869 10.9824 36.2267C10.1221 35.3664 9.63884 34.1997 9.63884 32.9831H18.8129ZM37.1622 32.9831C37.1622 34.1997 36.679 35.3664 35.8187 36.2267C34.9585 37.0869 33.7917 37.5702 32.5752 37.5702C31.3586 37.5702 30.1919 37.0869 29.3317 36.2267C28.4714 35.3664 27.9881 34.1997 27.9881 32.9831H37.1622ZM5.05066 28.395C5.65314 28.395 6.24971 28.5137 6.80631 28.7442C7.36291 28.9748 7.86863 29.3128 8.29459 29.7389C8.72056 30.1649 9.05841 30.6708 9.28886 31.2274C9.51932 31.7841 9.63785 32.3807 9.6377 32.9831H0.463623C0.463623 31.7666 0.946899 30.5999 1.80714 29.7396C2.66737 28.8794 3.83411 28.3961 5.05066 28.3961V28.395ZM23.4 28.395C24.6165 28.395 25.7833 28.8782 26.6435 29.7385C27.5037 30.5987 27.987 31.7654 27.987 32.982H18.8129C18.8129 31.7654 19.2962 30.5987 20.1564 29.7385C21.0167 28.8782 22.1834 28.395 23.4 28.395ZM18.8129 23.8079C18.8129 25.0245 18.3296 26.1912 17.4694 27.0515C16.6092 27.9117 15.4424 28.395 14.2259 28.395C13.0093 28.395 11.8426 27.9117 10.9824 27.0515C10.1221 26.1912 9.63884 25.0245 9.63884 23.8079H18.8129ZM37.1622 23.8079C37.1622 25.0245 36.679 26.1912 35.8187 27.0515C34.9585 27.9117 33.7917 28.395 32.5752 28.395C31.3586 28.395 30.1919 27.9117 29.3317 27.0515C28.4714 26.1912 27.9881 25.0245 27.9881 23.8079H37.1622ZM5.05066 19.2209C6.26722 19.2209 7.43396 19.7042 8.29419 20.5644C9.15443 21.4246 9.6377 22.5914 9.6377 23.8079H0.463623C0.463623 22.5914 0.946899 21.4246 1.80714 20.5644C2.66737 19.7042 3.83411 19.2209 5.05066 19.2209ZM23.4 19.2209C24.6165 19.2209 25.7833 19.7042 26.6435 20.5644C27.5037 21.4246 27.987 22.5914 27.987 23.8079H18.8129C18.8129 22.5914 19.2962 21.4246 20.1564 20.5644C21.0167 19.7042 22.1834 19.2209 23.4 19.2209ZM18.8129 14.6338C18.8129 15.8504 18.3296 17.0171 17.4694 17.8774C16.6092 18.7376 15.4424 19.2209 14.2259 19.2209C13.0093 19.2209 11.8426 18.7376 10.9824 17.8774C10.1221 17.0171 9.63884 15.8504 9.63884 14.6338H18.8129ZM37.1622 14.6338C37.1622 15.8504 36.679 17.0171 35.8187 17.8774C34.9585 18.7376 33.7917 19.2209 32.5752 19.2209C31.3586 19.2209 30.1919 18.7376 29.3317 17.8774C28.4714 17.0171 27.9881 15.8504 27.9881 14.6338H37.1622ZM5.05066 10.0457C5.65314 10.0457 6.24971 10.1643 6.80631 10.3949C7.36291 10.6255 7.86863 10.9635 8.29459 11.3896C8.72056 11.8156 9.05841 12.3215 9.28886 12.8781C9.51932 13.4348 9.63785 14.0314 9.6377 14.6338H0.463623C0.463474 14.0314 0.582011 13.4348 0.812465 12.8781C1.04292 12.3215 1.38077 11.8156 1.80673 11.3896C2.2327 10.9635 2.73842 10.6255 3.29502 10.3949C3.85162 10.1643 4.44819 10.0457 5.05066 10.0457ZM23.4 10.0457C24.6165 10.0457 25.7833 10.5289 26.6435 11.3892C27.5037 12.2494 27.987 13.4161 27.987 14.6327H18.8129C18.8129 13.4161 19.2962 12.2494 20.1564 11.3892C21.0167 10.5289 22.1834 10.0457 23.4 10.0457ZM18.8129 5.45862C18.8129 6.67518 18.3296 7.84191 17.4694 8.70215C16.6092 9.56239 15.4424 10.0457 14.2259 10.0457C13.0093 10.0457 11.8426 9.56239 10.9824 8.70215C10.1221 7.84191 9.63884 6.67518 9.63884 5.45862H18.8129ZM37.1622 5.45862C37.1622 6.67518 36.679 7.84191 35.8187 8.70215C34.9585 9.56239 33.7917 10.0457 32.5752 10.0457C31.3586 10.0457 30.1919 9.56239 29.3317 8.70215C28.4714 7.84191 27.9881 6.67518 27.9881 5.45862H37.1622ZM5.05066 0.871582C6.26722 0.871582 7.43396 1.35486 8.29419 2.2151C9.15443 3.07533 9.6377 4.24206 9.6377 5.45862H0.463623C0.463623 4.24206 0.946899 3.07533 1.80714 2.2151C2.66737 1.35486 3.83411 0.871582 5.05066 0.871582V0.871582ZM23.4 0.871582C24.6165 0.871582 25.7833 1.35486 26.6435 2.2151C27.5037 3.07533 27.987 4.24206 27.987 5.45862H18.8129C18.8129 4.24206 19.2962 3.07533 20.1564 2.2151C21.0167 1.35486 22.1834 0.871582 23.4 0.871582V0.871582Z" fill="#03E3BB"/>
</svg>
