<svg width="35" height="42" viewBox="0 0 35 42" fill="none" xmlns="http://www.w3.org/2000/svg">
<path d="M10.7246 39.5002C10.9736 38.8458 11.0142 38.1304 10.8408 37.452C10.6674 36.7736 10.2886 36.1654 9.75613 35.7107C8.55723 34.6715 7.76184 33.2438 7.50908 31.6775C7.25632 30.1111 7.56227 28.5057 8.37343 27.1422C9.18458 25.7786 10.4493 24.7435 11.9464 24.2181C13.4435 23.6927 15.0777 23.7103 16.5631 24.2679C19.5442 25.3875 22.8247 25.4199 25.8274 24.3594C28.83 23.2988 31.3624 21.2133 32.979 18.4697C34.5957 15.7261 35.1929 12.5003 34.6656 9.35976C34.1383 6.21927 32.5204 3.36534 30.0964 1.30014C29.6842 0.96113 29.197 0.72539 28.6753 0.612501C28.1536 0.499611 27.6126 0.512831 27.097 0.651063C26.5815 0.789295 26.1064 1.04855 25.7112 1.40728C25.316 1.76602 25.0121 2.21388 24.8248 2.71366C24.5758 3.36808 24.5352 4.08347 24.7085 4.76186C24.8819 5.44025 25.2607 6.04845 25.7932 6.50316C26.9986 7.54081 27.7997 8.97004 28.0558 10.5398C28.312 12.1095 28.0067 13.7192 27.1937 15.0862C26.3807 16.4532 25.112 17.49 23.6105 18.0143C22.1089 18.5387 20.4706 18.5171 18.9834 17.9534C16.0031 16.8365 12.7244 16.8058 9.72365 17.8668C6.72293 18.9278 4.19225 21.0126 2.57643 23.7547C0.960611 26.4968 0.36308 29.7207 0.888871 32.8598C1.41466 35.9988 3.03013 38.8521 5.45129 40.918C5.86393 41.257 6.35153 41.4926 6.87355 41.6053C7.39557 41.7179 7.93694 41.7044 8.45266 41.5657C8.96839 41.427 9.44357 41.1673 9.83872 40.808C10.2339 40.4488 10.5376 40.0004 10.7246 39.5002Z" fill="#ED5072"/>
</svg>
