<svg width="297" height="54" viewBox="0 0 297 54" fill="none" xmlns="http://www.w3.org/2000/svg">
<g filter="url(#filter0_d_0_39)">
<path fill-rule="evenodd" clip-rule="evenodd" d="M291.424 25.1109L293.49 27.5998C293.49 27.5999 293.49 27.5998 293.49 27.5998C294.635 28.9791 294.46 31.028 293.11 32.1985L293.099 32.2081L292.021 33.1093L281.332 42.0476C280.892 42.423 280.37 42.6647 279.828 42.7688L279.818 42.7707L275.026 43.6605C275.026 43.6606 275.026 43.6605 275.026 43.6605C273.228 43.9946 271.883 42.2368 272.453 40.6261L274.112 35.9459C274.299 35.4305 274.615 34.9466 275.055 34.5657L275.066 34.5569L285.782 25.5956L286.833 24.7165C288.208 23.546 290.267 23.7162 291.424 25.1109ZM286.547 27.1075L286.549 27.1104L290.677 32.0824L292.029 30.9517C292.704 30.3666 292.79 29.3394 292.221 28.6539L290.154 26.1646C289.586 25.4791 288.577 25.3951 287.9 25.9768L286.547 27.1075ZM276.134 35.8138C275.921 35.9987 275.76 36.2408 275.663 36.5075L274.009 41.1768C273.841 41.6507 274.237 42.1288 274.724 42.0384L279.516 41.1484C279.79 41.0957 280.05 40.9735 280.266 40.7884L289.702 32.8987L285.571 27.9235L276.134 35.8138Z" fill="#29292B"/>
</g>
<path fill-rule="evenodd" clip-rule="evenodd" d="M287.899 25.9772C288.576 25.3955 289.585 25.4796 290.155 26.1652L292.22 28.6543C292.79 29.3399 292.705 30.3671 292.029 30.9522L290.677 32.083L286.546 27.108L287.899 25.9772ZM285.57 27.924L276.135 35.8143C275.921 35.9992 275.759 36.2411 275.663 36.5081L274.009 41.1773C273.841 41.651 274.238 42.1294 274.723 42.0388L279.516 41.1489C279.79 41.0963 280.051 40.9741 280.265 40.7887L289.701 32.899L285.57 27.924Z" fill="white"/>
<path d="M5.30176 29.2126C83.3411 16.7723 209.988 27.9072 263.585 42.5714" stroke="#ED5072" stroke-width="8.80007" stroke-linecap="round" stroke-linejoin="round"/>
<defs>
<filter id="filter0_d_0_39" x="270.12" y="22.8399" width="26.3271" height="24.1618" filterUnits="userSpaceOnUse" color-interpolation-filters="sRGB">
<feFlood flood-opacity="0" result="BackgroundImageFix"/>
<feColorMatrix in="SourceAlpha" type="matrix" values="0 0 0 0 0 0 0 0 0 0 0 0 0 0 0 0 0 0 127 0" result="hardAlpha"/>
<feOffset dy="1.10001"/>
<feGaussianBlur stdDeviation="1.10001"/>
<feColorMatrix type="matrix" values="0 0 0 0 0 0 0 0 0 0 0 0 0 0 0 0 0 0 0.35 0"/>
<feBlend mode="normal" in2="BackgroundImageFix" result="effect1_dropShadow_0_39"/>
<feBlend mode="normal" in="SourceGraphic" in2="effect1_dropShadow_0_39" result="shape"/>
</filter>
</defs>
</svg>
